<svg
   xmlns:svg="http://www.w3.org/2000/svg"
   xmlns="http://www.w3.org/2000/svg"
   version="1.1"
   width="675"
   height="196.46709"
   id="svg13835">
  <defs
     id="defs13837">
    <radialGradient
       cx="0"
       cy="0"
       r="1"
       fx="0"
       fy="0"
       id="radialGradient13571-4"
       gradientUnits="userSpaceOnUse"
       gradientTransform="matrix(99.219417,0,0,115.15368,658.51287,515.28393)"
       spreadMethod="pad">
      <stop
         id="stop13573-0"
         style="stop-color:#0994dc;stop-opacity:1"
         offset="0" />
      <stop
         id="stop13575-9"
         style="stop-color:#2056ae;stop-opacity:1"
         offset="1" />
    </radialGradient>
  </defs>
  <g
     transform="translate(-68.214271,-416.98579)"
     id="layer1">
    <path
       d="m 290.46304,449.40343 0,34.67837 28.22862,0 c 5.07741,0 8.87986,-1.54402 8.87986,-9.1603 0,-5.21947 -1.4507,-7.74667 -5.32792,-8.31917 l 0,-0.0927 c 2.47889,-0.85995 4.29972,-2.00434 4.29972,-7.94499 0,-6.80149 -3.48465,-9.16058 -10.56236,-9.16058 l -25.51792,0 z m 68.04778,0 -15.60986,34.67837 9.90806,0 2.52375,-6.07556 18.04014,0 2.71069,6.07556 9.90806,0 -15.89029,-34.67837 -11.59055,0 z m 43.745,0 0,34.67837 26.82653,0 c 8.87986,0 11.96444,-3.48107 11.96444,-12.05779 l 0,-10.56251 c 0,-8.577 -3.08458,-12.05807 -11.96444,-12.05807 l -26.82653,0 z m 56.92459,0 0,34.67837 32.24791,0 0,-8.31889 -23.36805,0 0,-5.51501 21.59208,0 0,-7.19722 -21.59208,0 0,-5.60833 22.80722,0 0,-8.03892 -31.68708,0 z m 50.38153,0 0,34.67837 8.87985,0 0,-25.14389 0.0935,0 16.63804,25.14389 13.74042,0 0,-34.67837 -8.87986,0 0,25.23781 -16.73152,-25.23781 -13.74041,0 z m -145.25584,8.03892 5.70181,13.08612 -11.31014,0 5.60833,-13.08612 z m -64.96319,0.28041 15.70333,0 c 1.63763,0 2.61722,0.79266 2.61722,2.80417 0,1.96278 -0.97959,2.61723 -2.61722,2.61723 l -15.70333,0 0,-5.4214 z m 111.79278,0.28118 15.7968,0 c 3.79871,0 5.23445,1.32745 5.23445,6.26278 l 0,4.6736 c 0,4.93534 -1.43574,6.2625 -5.23445,6.2625 l -15.7968,0 0,-17.19888 z m 144.97541,4.95418 0,7.19751 14.76861,0 0,-7.19751 -14.76861,0 z m -256.76819,7.38326 15.89028,0 c 1.91805,0 3.17805,0.54975 3.17805,2.89778 0,2.01153 -1.26,2.5239 -3.17805,2.5239 l -15.89028,0 0,-5.42168 z m -163.10904,22.90084 0,7.19751 7.66472,0 0,-7.19751 -7.66472,0 z m 10.84277,0 0,7.19751 7.7582,0 0,-7.19751 -7.7582,0 z m 377.53432,10.095 c -7.99749,0 -12.80569,2.46408 -12.80569,12.6186 l 0,10.28224 c 0,10.15452 4.8082,12.6186 12.80569,12.6186 l 10.65583,0 c 9.9978,0 14.30125,-0.50491 14.30125,-10.4689 l 0,-9.90804 -19.90958,0 0,7.1972 11.02973,0 0,1.02834 c 0,3.35365 -2.26203,3.7389 -4.58015,3.7389 l -9.53417,0 c -4.47918,0 -5.60833,-1.26015 -5.60833,-7.19721 l 0,-4.30003 c 0,-5.94064 1.12915,-7.1972 5.60833,-7.1972 l 9.62765,0 c 2.83782,0 4.48667,0.38166 4.48667,3.8322 l 8.78638,0 0,-1.12167 c 0,-6.75212 -1.42078,-11.12303 -11.49708,-11.12303 l -13.36653,0 z m -455.396669,0.37388 9.440687,34.77166 10.18848,0 6.73,-22.90084 0.09349,0 6.730002,22.90084 10.18847,0 9.44069,-34.77166 -8.69291,0 -6.16917,25.51807 -0.0935,0 -7.384312,-25.51807 -8.225552,0 -7.290833,25.51807 -0.09349,0 -6.169166,-25.51807 -8.692906,0 z m 58.046249,0 0,22.33972 c 0,8.62218 3.71272,12.80584 11.87097,12.80584 l 12.71222,0 c 8.15826,0 11.87098,-4.18366 11.87098,-12.80584 l 0,-22.33972 -8.87987,0 0,20.09638 c 0,4.40502 -1.31608,6.07585 -4.95403,6.07585 l -8.78638,0 c -3.64169,0 -4.95404,-1.67083 -4.95404,-6.07585 l 0,-20.09638 -8.87985,0 z m 44.49277,0 0,34.77166 8.87988,0 0,-9.06694 13.92735,0 c 2.7593,0 3.64542,1.22306 3.64542,4.86056 l 0,4.20638 8.87986,0 0,-5.9822 c 0,-5.69807 -2.2209,-7.08894 -4.86055,-7.66473 l 0,-0.0927 c 4.07912,-1.15159 4.95402,-3.85853 4.95402,-8.50614 l 0,-2.15 c 0,-6.22869 -1.76102,-10.37527 -8.59944,-10.37527 l -26.82654,0 z m 41.31473,0 0,8.69307 12.52528,0 0,26.07859 8.87987,0 0,-26.07859 12.4318,0 0,-8.69307 -33.83695,0 z m 37.57583,0 0,8.69307 12.52529,0 0,26.07859 8.87986,0 0,-26.07859 12.4318,0 0,-8.69307 -33.83695,0 z m 39.7257,0 0,34.77166 32.24792,0 0,-8.4125 -23.36805,0 0,-5.51501 21.59208,0 0,-7.19719 -21.59208,0 0,-5.51501 22.80722,0 0,-8.13195 -31.68709,0 z m 39.25834,0 0,34.77166 8.69291,0 0,-24.95693 0.0935,0 11.59055,24.95693 6.63652,0 11.68404,-24.95693 0,24.95693 8.69291,0 0,-34.77166 -13.64695,0 -10.00152,22.33972 -10.095,-22.33972 -13.64693,0 z m 55.33555,0 0,34.77166 28.32208,0 c 5.08115,0 8.7864,-1.63792 8.7864,-9.25359 0,-5.21979 -1.35348,-7.74697 -5.23445,-8.31918 l 0,-0.0927 c 2.48262,-0.85965 4.20625,-2.00406 4.20625,-7.945 0,-6.8012 -3.39117,-9.16029 -10.46889,-9.16029 l -25.61139,0 z m 44.49278,0 0,34.77166 32.24792,0 0,-8.4125 -23.36806,0 0,-5.51501 21.59209,0 0,-7.19719 -21.59209,0 0,-5.51501 22.80722,0 0,-8.13195 -31.68708,0 z m 39.53875,0 0,34.77166 8.87986,0 0,-9.06694 14.02084,0 c 2.7593,0 3.55193,1.22306 3.55193,4.86056 l 0,4.20638 8.87987,0 0,-5.9822 c 0,-5.69807 -2.12743,-7.08894 -4.76708,-7.66473 l 0,-0.0927 c 4.07913,-1.15159 4.95403,-3.85853 4.95403,-8.50614 l 0,-2.15 c 0,-6.22869 -1.8545,-10.37527 -8.69292,-10.37527 l -26.82653,0 z m -75.15167,8.4125 15.7968,0 c 1.64138,0 2.52375,0.69933 2.52375,2.71055 0,1.96336 -0.88237,2.71084 -2.52375,2.71084 l -15.7968,0 0,-5.42139 z m -213.21013,0.28118 13.83388,0 c 2.79669,0 4.11278,0.57936 4.11278,3.64526 l 0,1.12166 c 0,2.49398 -0.8749,3.64527 -3.27153,3.64527 l -14.67513,0 0,-8.41219 z m 297.24166,0 13.92736,0 c 2.80043,0 4.01931,0.57936 4.01931,3.64526 l 0,1.12166 c 0,2.49398 -0.87116,3.64527 -3.27153,3.64527 l -14.67514,0 0,-8.41219 z m -84.03153,12.24469 15.98375,0 c 1.91805,0 3.17805,0.54978 3.17805,2.8975 0,2.01182 -1.26,2.5239 -3.17805,2.5239 l -15.98375,0 0,-5.4214 z m -91.5093,33.46233 c -8.07975,0 -12.05792,1.81351 -12.05792,9.90804 0,9.41453 3.92957,10.28196 15.89027,10.28196 l 7.47779,0 c 4.87925,0 6.26263,1.1441 6.26263,5.60833 0,5.10343 -1.61145,6.54304 -7.29083,6.54304 l -12.15139,0 c -4.87925,0 -6.44958,-1.65647 -6.44958,-5.14082 l 0,-2.52389 -3.64542,0 0,2.61721 c 0,7.74699 5.0288,8.97333 10.7493,8.97333 l 10.84279,0 c 5.79901,0 11.68403,-0.62064 11.68403,-9.3472 l 0,-2.33666 c 0,-6.03098 -3.20423,-8.69307 -10.84278,-8.69307 l -11.59056,0 c -6.11683,0 -7.19736,-1.4806 -7.19736,-5.70196 0,-5.84015 2.63218,-6.26248 10.18847,-6.26248 l 4.20625,0 c 10.27821,0 10.76426,0.99065 10.84278,6.63637 l 3.64542,0 0,-1.215 c 0,-6.33007 -2.43402,-9.3472 -12.15139,-9.3472 l -8.4125,0 z m 220.59444,0 c -7.83671,0 -10.28194,4.29583 -10.28194,13.27304 l 0,9.72112 c 0,8.97722 2.44523,13.27304 10.28194,13.27304 l 16.1707,0 c 7.23475,0 9.81458,-3.4248 9.81458,-13.0861 l 0,-4.95389 -18.78792,0 0,3.92555 14.86209,0 0,3.64557 c 0,4.909 -2.43776,6.54304 -6.35612,6.54304 l -15.32944,0 c -3.76133,0 -6.82348,-1.38696 -6.82348,-7.57139 l 0,-13.36638 c 0,-6.18413 3.06215,-7.47777 6.82348,-7.47777 l 10.18847,0 c 9.67999,0 11.31014,0.48216 11.31014,7.10387 l 3.64541,0 0,-1.3086 c 0,-8.18817 -5.5485,-9.7211 -10.7493,-9.7211 l -14.76861,0 z m -196.57209,0.37387 0,3.92583 12.43182,0 0,31.59363 3.92583,0 0,-31.59363 12.52527,0 0,-3.92583 -28.88292,0 z m 33.46307,0 0,35.51946 3.92583,0 0,-35.51946 -3.92583,0 z m 9.25375,0 0,35.51946 3.92583,0 0,-16.3578 20.56389,0 0,-3.92552 -20.56389,0 0,-11.31031 21.4986,0 0,-3.92583 -25.42443,0 z m 30.00458,0 0,3.92583 12.4318,0 0,31.59363 3.92584,0 0,-31.59363 12.52528,0 0,-3.92583 -28.88292,0 z m 33.93042,0 0,26.54613 c 0,7.20498 3.01728,9.3472 10.37541,9.3472 l 12.52527,0 c 7.35814,0 10.28195,-2.14222 10.28195,-9.3472 l 0,-26.54613 -3.92583,0 0,26.54613 c 0,3.4323 -0.9422,5.42137 -6.26264,5.42137 l -12.80569,0 c -5.32044,0 -6.26264,-1.98907 -6.26264,-5.42137 l 0,-26.54613 -3.92583,0 z m 38.88443,0 0,35.51946 3.92584,0 0,-31.21973 25.79833,31.21973 5.88875,0 0,-35.51946 -3.92583,0 0,31.21973 -25.8918,-31.21973 -5.79529,0 z"
       id="path13541"
       style="fill:#2056ae;fill-opacity:1;fill-rule:nonzero;stroke:none" />
    <path
       d="m 677.24362,427.38908 c 0,5.19332 4.20999,9.40332 9.40705,9.40332 l 0,0 c 5.18957,0 9.39957,-4.21 9.39957,-9.40332 l 0,0 c 0,-5.19331 -4.21,-9.40329 -9.39957,-9.40329 l 0,0 c -5.19706,0 -9.40705,4.20998 -9.40705,9.40329 m -49.2449,0 c 0,3.3052 2.68452,5.98223 5.9897,5.98223 l 0,0 c 3.30143,0 5.98222,-2.67703 5.98222,-5.98223 l 0,0 c 0,-3.30891 -2.68079,-5.98595 -5.98222,-5.98595 l 0,0 c -3.30518,0 -5.9897,2.67704 -5.9897,5.98595 m 18.81035,20.17506 c 0,6.89451 5.5859,12.48415 12.48415,12.48415 l 0,0 c 6.8945,0 12.4804,-5.58964 12.4804,-12.48415 l 0,0 c 0,-6.89078 -5.5859,-12.48042 -12.4804,-12.48042 l 0,0 c -6.89825,0 -12.48415,5.58964 -12.48415,12.48042 m 56.42357,0 c 0,3.30517 2.68078,5.98596 5.98596,5.98596 l 0,0 c 3.30517,0 5.98222,-2.68079 5.98222,-5.98596 l 0,0 c 0,-3.30519 -2.67705,-5.98223 -5.98222,-5.98223 l 0,0 c -3.30518,0 -5.98596,2.67704 -5.98596,5.98223 m -22.57167,0 c 0,3.30517 2.68078,5.98596 5.9897,5.98596 l 0,0 c 3.30143,0 5.98222,-2.68079 5.98222,-5.98596 l 0,0 c 0,-3.30519 -2.68079,-5.98223 -5.98222,-5.98223 l 0,0 c -3.30892,0 -5.9897,2.67704 -5.9897,5.98223 m -52.66225,0 c 0,3.30517 2.68452,5.98596 5.9897,5.98596 l 0,0 c 3.30143,0 5.98222,-2.68079 5.98222,-5.98596 l 0,0 c 0,-3.30519 -2.68079,-5.98223 -5.98222,-5.98223 l 0,0 c -3.30518,0 -5.9897,2.67704 -5.9897,5.98223 m 46.1678,20.85926 c 0,6.8945 5.58963,12.48415 12.48415,12.48415 l 0,0 c 6.89077,0 12.4804,-5.58965 12.4804,-12.48415 l 0,0 c 0,-6.89078 -5.58963,-12.48041 -12.4804,-12.48041 l 0,0 c -6.89452,0 -12.48415,5.58963 -12.48415,12.48041 m -52.66225,0 c 0,6.8945 5.5859,12.48415 12.48415,12.48415 l 0,0 c -6.89825,0 -12.48415,5.5859 -12.48415,12.4804 l 0,0 c 0,6.89078 5.5859,12.48043 12.48415,12.48043 l 0,0 c 6.89077,0 12.4804,-5.58965 12.4804,-12.48043 l 0,0 c 0,-6.8945 -5.58963,-12.4804 -12.4804,-12.4804 l 0,0 c 6.89077,0 12.4804,-5.58965 12.4804,-12.48415 l 0,0 c 0,-6.89078 -5.58963,-12.48041 -12.4804,-12.48041 l 0,0 c -6.89825,0 -12.48415,5.58963 -12.48415,12.48041 m 81.72837,0 c 0,3.30517 2.68078,5.98595 5.98596,5.98595 l 0,0 c 3.30517,0 5.98222,-2.68078 5.98222,-5.98595 l 0,0 c 0,-3.30517 -2.67705,-5.98223 -5.98222,-5.98223 l 0,0 c -3.30518,0 -5.98596,2.67706 -5.98596,5.98223 m -49.92912,0 c 0,3.30517 2.68452,5.98595 5.9897,5.98595 l 0,0 c 3.30143,0 5.98222,-2.68078 5.98222,-5.98595 l 0,0 c 0,-3.30517 -2.68079,-5.98223 -5.98222,-5.98223 l 0,0 c -3.30518,0 -5.9897,2.67706 -5.9897,5.98223 m 70.10417,24.96455 c 0,5.19332 4.20998,9.40331 9.40703,9.40331 l 0,0 c 5.18958,0 9.39957,-4.20999 9.39957,-9.40331 l 0,0 c 0,-5.19704 -4.20999,-9.40704 -9.39957,-9.40704 l 0,0 c -5.19705,0 -9.40703,4.21 -9.40703,9.40704 m -46.16407,0 c 0,5.19332 4.20999,9.40331 9.40705,9.40331 l 0,0 c 5.18957,0 9.39957,-4.20999 9.39957,-9.40331 l 0,0 c 0,-5.19704 -4.21,-9.40704 -9.39957,-9.40704 l 0,0 c -5.19706,0 -9.40705,4.21 -9.40705,9.40704 m -27.35745,0 c 0,5.19332 4.20999,9.40331 9.40705,9.40331 l 0,0 c 5.18957,0 9.4033,-4.20999 9.4033,-9.40331 l 0,0 c 0,-5.19704 -4.21373,-9.40704 -9.4033,-9.40704 l 0,0 c -5.19706,0 -9.40705,4.21 -9.40705,9.40704 m 53.34647,0 c 0,3.30519 2.68078,5.98223 5.98596,5.98223 l 0,0 c 3.30517,0 5.98222,-2.67704 5.98222,-5.98223 l 0,0 c 0,-3.30517 -2.67705,-5.98595 -5.98222,-5.98595 l 0,0 c -3.30518,0 -5.98596,2.68078 -5.98596,5.98595 m -99.51053,0 c 0,3.30519 2.68078,5.98223 5.98596,5.98223 l 0,0 c 3.30518,0 5.98222,-2.67704 5.98222,-5.98223 l 0,0 c 0,-3.30517 -2.67704,-5.98595 -5.98222,-5.98595 l 0,0 c -3.30518,0 -5.98596,2.68078 -5.98596,5.98595 m 40.69406,24.96083 c 0,8.21807 6.6627,14.87705 14.87705,14.87705 l 0,0 c 8.21433,0 14.8733,-6.65898 14.8733,-14.87705 l 0,0 c 0,-8.21435 -6.65897,-14.8733 -14.8733,-14.8733 l 0,0 c -8.21435,0 -14.87705,6.65895 -14.87705,14.8733 m 29.75035,0 c 0,6.8945 5.58963,12.4804 12.48415,12.4804 l 0,0 c -5.19706,0 -9.40705,4.21375 -9.40705,9.40706 l 0,0 c 0,5.19332 4.20999,9.40329 9.40705,9.40329 l 0,0 c 5.18957,0 9.39957,-4.20997 9.39957,-9.40329 l 0,0 c 0,-5.19331 -4.21,-9.40706 -9.39957,-9.40706 l 0,0 c 6.89077,0 12.4804,-5.5859 12.4804,-12.4804 l 0,0 c 0,-6.89078 -5.58963,-12.4804 -12.4804,-12.4804 l 0,0 c -6.89452,0 -12.48415,5.58962 -12.48415,12.4804 m -49.58515,0 c 0,5.19706 4.20999,9.40704 9.40705,9.40704 l 0,0 c -6.89825,0 -12.48415,5.5859 -12.48415,12.48042 l 0,0 c 0,6.89451 5.5859,12.48041 12.48415,12.48041 l 0,0 c -5.19706,0 -9.40705,4.21372 -9.40705,9.40331 l 0,0 c 0,5.19332 4.20999,9.40329 9.40705,9.40329 l 0,0 c 5.18957,0 9.39957,-4.20997 9.39957,-9.40329 l 0,0 c 0,-5.18959 -4.21,-9.40331 -9.39957,-9.40331 l 0,0 c 6.89077,0 12.4804,-5.5859 12.4804,-12.48041 l 0,0 c 0,-6.89452 -5.58963,-12.48042 -12.4804,-12.48042 l 0,0 c 5.18957,0 9.39957,-4.20998 9.39957,-9.40704 l 0,0 c 0,-5.19332 -4.21,-9.40331 -9.39957,-9.40331 l 0,0 c -5.19706,0 -9.40705,4.20999 -9.40705,9.40331 m -49.92538,0 c 0,5.19706 4.21373,9.40704 9.4033,9.40704 l 0,0 c 5.19332,0 9.40705,-4.20998 9.40705,-9.40704 l 0,0 c 0,-5.19332 -4.21373,-9.40331 -9.40705,-9.40331 l 0,0 c -5.18957,0 -9.4033,4.20999 -9.4033,9.40331 m 128.57665,0 c 0,3.30517 2.68078,5.98595 5.98596,5.98595 l 0,0 c 3.30517,0 5.98222,-2.68078 5.98222,-5.98595 l 0,0 c 0,-3.30517 -2.67705,-5.98223 -5.98222,-5.98223 l 0,0 c -3.30518,0 -5.98596,2.67706 -5.98596,5.98223 m -99.51053,0 c 0,3.30517 2.68078,5.98595 5.98596,5.98595 l 0,0 c 3.30518,0 5.98222,-2.68078 5.98222,-5.98595 l 0,0 c 0,-3.30517 -2.67704,-5.98223 -5.98222,-5.98223 l 0,0 c -3.30518,0 -5.98596,2.67706 -5.98596,5.98223 m -3.41734,21.88746 c 0,5.19332 4.20999,9.40329 9.4033,9.40329 l 0,0 c -6.89451,0 -12.48415,5.5859 -12.48415,12.48043 l 0,0 c 0,6.89077 5.58964,12.4804 12.48415,12.4804 l 0,0 c -5.19331,0 -9.4033,4.21 -9.4033,9.40704 l 0,0 c 0,5.19332 4.20999,9.40331 9.4033,9.40331 l 0,0 c 5.19332,0 9.4033,-4.20999 9.4033,-9.40331 l 0,0 c 0,-5.19704 -4.20998,-9.40704 -9.4033,-9.40704 l 0,0 c 6.89077,0 12.48042,-5.58963 12.48042,-12.4804 l 0,0 c 0,-6.89452 -5.58965,-12.48043 -12.48042,-12.48043 l 0,0 c 5.19332,0 9.4033,-4.20997 9.4033,-9.40329 l 0,0 c 0,-5.19331 -4.20998,-9.40706 -9.4033,-9.40706 l 0,0 c -5.19331,0 -9.4033,4.21375 -9.4033,9.40706 m 102.92787,0 c 0,3.30517 2.68078,5.98596 5.98596,5.98596 l 0,0 c 3.30517,0 5.98222,-2.68079 5.98222,-5.98596 l 0,0 c 0,-3.30519 -2.67705,-5.98597 -5.98222,-5.98597 l 0,0 c -3.30518,0 -5.98596,2.68078 -5.98596,5.98597 m -49.92912,0 c 0,3.30517 2.68452,5.98596 5.9897,5.98596 l 0,0 c 3.30143,0 5.98222,-2.68079 5.98222,-5.98596 l 0,0 c 0,-3.30519 -2.68079,-5.98597 -5.98222,-5.98597 l 0,0 c -3.30518,0 -5.9897,2.68078 -5.9897,5.98597 m -75.22645,0 c 0,3.30517 2.68079,5.98596 5.98222,5.98596 l 0,0 c 3.30518,0 5.98223,-2.68079 5.98223,-5.98596 l 0,0 c 0,-3.30519 -2.67705,-5.98597 -5.98223,-5.98597 l 0,0 c -3.30143,0 -5.98222,2.68078 -5.98222,5.98597 m 68.732,21.88372 c 0,6.89076 5.5859,12.4804 12.48415,12.4804 l 0,0 c -5.19706,0 -9.40705,4.21 -9.40705,9.40704 l 0,0 c 0,5.19332 4.20999,9.40331 9.40705,9.40331 l 0,0 c 5.18957,0 9.4033,-4.20999 9.4033,-9.40331 l 0,0 c 0,-5.19704 -4.21373,-9.40704 -9.4033,-9.40704 l 0,0 c 6.8945,0 12.4804,-5.58964 12.4804,-12.4804 l 0,0 c 0,-6.89453 -5.5859,-12.48043 -12.4804,-12.48043 l 0,0 c -6.89825,0 -12.48415,5.5859 -12.48415,12.48043 m 30.43455,0 c 0,5.19332 4.20999,9.40329 9.40705,9.40329 l 0,0 c -6.89452,0 -12.48415,5.58965 -12.48415,12.48415 l 0,0 c 0,6.89078 5.58963,12.48043 12.48415,12.48043 l 0,0 c 6.89077,0 12.4804,-5.58965 12.4804,-12.48043 l 0,0 c 0,-6.8945 -5.58963,-12.48415 -12.4804,-12.48415 l 0,0 c 5.18957,0 9.39957,-4.20997 9.39957,-9.40329 l 0,0 c 0,-5.18959 -4.21,-9.40331 -9.39957,-9.40331 l 0,0 c -5.19706,0 -9.40705,4.21372 -9.40705,9.40331 m -102.58763,0 c 0,5.19332 4.21373,9.40329 9.4033,9.40329 l 0,0 c 5.19332,0 9.40705,-4.20997 9.40705,-9.40329 l 0,0 c 0,-5.18959 -4.21373,-9.40331 -9.40705,-9.40331 l 0,0 c -5.18957,0 -9.4033,4.21372 -9.4033,9.40331 m 128.57665,0 c 0,3.30517 2.68078,5.98221 5.98596,5.98221 l 0,0 c 3.30517,0 5.98222,-2.67704 5.98222,-5.98221 l 0,0 c 0,-3.30145 -2.67705,-5.98223 -5.98222,-5.98223 l 0,0 c -3.30518,0 -5.98596,2.68078 -5.98596,5.98223 M 574.65599,584.0074 c 0,5.19332 4.21373,9.40331 9.4033,9.40331 l 0,0 c 5.19332,0 9.40705,-4.20999 9.40705,-9.40331 l 0,0 c 0,-5.19704 -4.21373,-9.40704 -9.40705,-9.40704 l 0,0 c -5.18957,0 -9.4033,4.21 -9.4033,9.40704 m 128.57665,0 c 0,3.30519 2.68078,5.98223 5.98596,5.98223 l 0,0 c 3.30517,0 5.98222,-2.67704 5.98222,-5.98223 l 0,0 c 0,-3.30517 -2.67705,-5.98595 -5.98222,-5.98595 l 0,0 c -3.30518,0 -5.98596,2.68078 -5.98596,5.98595 m -75.23392,0 c 0,3.30519 2.68452,5.98223 5.9897,5.98223 l 0,0 c 3.30143,0 5.98222,-2.67704 5.98222,-5.98223 l 0,0 c 0,-3.30517 -2.68079,-5.98595 -5.98222,-5.98595 l 0,0 c -3.30518,0 -5.9897,2.68078 -5.9897,5.98595 m 52.66225,22.46326 c 0,3.30517 2.68078,5.98221 5.9897,5.98221 l 0,0 c 3.30143,0 5.98222,-2.67704 5.98222,-5.98221 l 0,0 c 0,-3.30519 -2.68079,-5.98598 -5.98222,-5.98598 l 0,0 c -3.30892,0 -5.9897,2.68079 -5.9897,5.98598"
       id="path13577"
       style="fill:url(#radialGradient13571-4);stroke:none" />
  </g>
</svg>
